<?xml version="1.0" encoding="utf-8"?>
<!-- Generator: Adobe Illustrator 27.1.1, SVG Export Plug-In . SVG Version: 6.00 Build 0)  -->
<svg version="1.1" id="Layer_1" xmlns="http://www.w3.org/2000/svg" xmlns:xlink="http://www.w3.org/1999/xlink" x="0px" y="0px"
	 viewBox="0 0 512 512" style="enable-background:new 0 0 512 512;" xml:space="preserve">
<style type="text/css">
	.st0{fill:#5F259F;}
	.st1{fill:#FFFFFF;}
</style>
<g>
	<circle class="st0" cx="69.56" cy="256" r="69.52"/>
	<path class="st0" d="M351.62,295.73v-25.25c0-6.21-2.33-9.32-8.16-9.32c-2.33,0-5.05,0.39-6.6,0.78v36.9
		c0,1.17-1.17,2.33-2.33,2.33h-8.93c-1.17,0-2.33-1.17-2.33-2.33v-43.11c0-1.55,1.17-2.72,2.33-3.11
		c5.83-1.94,11.65-3.11,17.87-3.11c13.98,0,21.75,7.38,21.75,20.97v28.74c0,1.17-1.17,2.33-2.33,2.33h-5.44
		C353.95,301.55,351.62,298.83,351.62,295.73z M386.58,280.58l-0.39,3.5c0,4.66,3.11,7.38,8.16,7.38c3.88,0,7.38-1.17,11.26-3.11
		c0.39,0,0.78-0.39,1.17-0.39c0.78,0,1.17,0.39,1.55,0.78s1.17,1.55,1.17,1.55c0.78,1.17,1.55,2.72,1.55,3.88
		c0,1.94-1.17,3.88-2.72,4.66c-4.27,2.33-9.32,3.5-14.76,3.5c-6.21,0-11.26-1.55-15.15-4.66c-3.88-3.5-6.21-8.16-6.21-13.98v-15.15
		c0-12.04,7.77-19.42,20.97-19.42c12.82,0,20.2,6.99,20.2,19.42v9.32c0,1.17-1.17,2.33-2.33,2.33h-24.47L386.58,280.58z
		 M386.19,272.03h14.76v-3.88c0-4.66-2.72-7.77-7.38-7.77c-4.66,0-7.38,2.72-7.38,7.77L386.19,272.03z M485.23,280.58l-0.39,3.5
		c0,4.66,3.11,7.38,8.16,7.38c3.88,0,7.38-1.17,11.26-3.11c0.39,0,0.78-0.39,1.17-0.39c0.78,0,1.17,0.39,1.55,0.78
		s1.17,1.55,1.17,1.55c0.78,1.17,1.55,2.72,1.55,3.88c0,1.94-1.17,3.88-2.72,4.66c-4.27,2.33-9.32,3.5-14.76,3.5
		c-6.21,0-11.26-1.55-15.15-4.66c-3.88-3.5-6.21-8.16-6.21-13.98v-15.15c0-12.04,7.77-19.42,20.97-19.42
		c12.82,0,20.2,6.99,20.2,19.42v9.32c0,1.17-1.17,2.33-2.33,2.33h-24.47L485.23,280.58z M484.84,272.03h14.76v-3.88
		c0-4.66-2.72-7.77-7.38-7.77s-7.38,2.72-7.38,7.77L484.84,272.03L484.84,272.03z M256.47,301.55h5.44c1.17,0,2.33-1.17,2.33-2.33
		v-28.74c0-13.2-6.99-20.97-18.64-20.97c-3.5,0-7.38,0.78-9.71,1.55v-14.37c0-3.11-2.72-5.83-5.83-5.83h-5.44
		c-1.17,0-2.33,1.17-2.33,2.33v66.03c0,1.17,1.17,2.33,2.33,2.33h8.93c1.17,0,2.33-1.17,2.33-2.33v-36.51
		c1.94-0.78,4.66-1.17,6.6-1.17c5.83,0,8.16,2.72,8.16,9.32v25.25C251.03,298.83,253.36,301.55,256.47,301.55z M315.12,268.93v14.37
		c0,12.04-8.16,19.42-21.75,19.42c-13.2,0-21.75-7.38-21.75-19.42v-14.37c0-12.04,8.16-19.42,21.75-19.42
		S315.12,256.89,315.12,268.93z M301.52,268.93c0-4.66-2.72-7.77-7.77-7.77c-5.05,0-7.77,2.72-7.77,7.77v14.37
		c0,4.66,2.72,7.38,7.77,7.38c5.05,0,7.77-2.72,7.77-7.38V268.93z M214.91,262.32c0,12.43-9.32,20.97-21.75,20.97
		c-3.11,0-5.83-0.39-8.55-1.55v17.48c0,1.17-1.17,2.33-2.33,2.33h-8.93c-1.17,0-2.33-1.17-2.33-2.33v-61.75
		c0-1.55,1.17-2.72,2.33-3.11c5.83-1.94,11.65-3.11,17.87-3.11c13.98,0,23.69,8.55,23.69,21.75L214.91,262.32L214.91,262.32z
		 M200.93,252.23c0-6.21-4.27-9.32-10.1-9.32c-3.5,0-5.83,1.17-5.83,1.17v25.63c2.33,1.17,3.5,1.55,6.21,1.55
		c5.83,0,10.1-3.5,10.1-9.32v-9.71L200.93,252.23L200.93,252.23z M465.81,262.32c0,12.43-9.32,20.97-21.75,20.97
		c-3.11,0-5.83-0.39-8.55-1.55v17.48c0,1.17-1.17,2.33-2.33,2.33h-8.93c-1.17,0-2.33-1.17-2.33-2.33v-61.75
		c0-1.55,1.17-2.72,2.33-3.11c5.83-1.94,11.65-3.11,17.87-3.11c13.98,0,23.69,8.55,23.69,21.75L465.81,262.32L465.81,262.32z
		 M451.83,252.23c0-6.21-4.27-9.32-10.1-9.32c-3.5,0-5.83,1.17-5.83,1.17v25.63c2.33,1.17,3.5,1.55,6.21,1.55
		c5.83,0,10.1-3.5,10.1-9.32v-9.71L451.83,252.23L451.83,252.23z"/>
	<path class="st1" d="M101.11,237.85c0-2.72-2.33-5.05-5.05-5.05h-9.32l-21.36-24.47c-1.94-2.33-5.05-3.11-8.16-2.33l-7.38,2.33
		c-1.17,0.39-1.55,1.94-0.78,2.72l23.3,22.14H37.02c-1.17,0-1.94,0.78-1.94,1.94v3.88c0,2.72,2.33,5.05,5.05,5.05h5.44v18.64
		c0,13.98,7.38,22.14,19.81,22.14c3.88,0,6.99-0.39,10.88-1.94v12.43c0,3.5,2.72,6.21,6.21,6.21h5.44c1.17,0,2.33-1.17,2.33-2.33
		v-55.54h8.93c1.17,0,1.94-0.78,1.94-1.94L101.11,237.85L101.11,237.85z M76.25,271.26c-2.33,1.17-5.44,1.55-7.77,1.55
		c-6.21,0-9.32-3.11-9.32-10.1v-18.64h17.09L76.25,271.26L76.25,271.26z"/>
</g>
</svg>
